<?xml version="1.0" encoding="UTF-8" standalone="no"?>
<!-- Created with Inkscape (http://www.inkscape.org/) -->

<svg
   width="1200"
   height="400"
   viewBox="0 0 1200 400"
   version="1.1"
   id="svg1"
   inkscape:export-filename="banner.png"
   inkscape:export-xdpi="96"
   inkscape:export-ydpi="96"
   inkscape:version="1.3.2 (091e20e, 2023-11-25)"
   sodipodi:docname="banner.svg"
   xmlns:inkscape="http://www.inkscape.org/namespaces/inkscape"
   xmlns:sodipodi="http://sodipodi.sourceforge.net/DTD/sodipodi-0.dtd"
   xmlns:xlink="http://www.w3.org/1999/xlink"
   xmlns="http://www.w3.org/2000/svg"
   xmlns:svg="http://www.w3.org/2000/svg">
  <sodipodi:namedview
     id="namedview1"
     pagecolor="#ffffff"
     bordercolor="#000000"
     borderopacity="0.25"
     inkscape:showpageshadow="2"
     inkscape:pageopacity="0.0"
     inkscape:pagecheckerboard="0"
     inkscape:deskcolor="#d1d1d1"
     inkscape:document-units="px"
     inkscape:zoom="1.03"
     inkscape:cx="540.7767"
     inkscape:cy="154.36893"
     inkscape:window-width="2056"
     inkscape:window-height="1837"
     inkscape:window-x="1310"
     inkscape:window-y="25"
     inkscape:window-maximized="0"
     inkscape:current-layer="g2" />
  <defs
     id="defs1">
    <rect
       x="463.1068"
       y="91.262136"
       width="612.62136"
       height="222.3301"
       id="rect2" />
    <filter
       style="color-interpolation-filters:sRGB"
       inkscape:label="Invert"
       id="filter33-7-2"
       x="0"
       y="0"
       width="1"
       height="1">
      <feColorMatrix
         values="1 0 0 0 0 0 1 0 0 0 0 0 1 0 0 -0.21 -0.72 -0.07 2 0 "
         result="fbSourceGraphic"
         id="feColorMatrix33-1-2" />
      <feColorMatrix
         result="fbSourceGraphicAlpha"
         in="fbSourceGraphic"
         values="0 0 0 -1 0 0 0 0 -1 0 0 0 0 -1 0 0 0 0 1 0"
         id="feColorMatrix156-7" />
      <feColorMatrix
         id="feColorMatrix157-1"
         type="hueRotate"
         values="180"
         result="color1"
         in="fbSourceGraphic" />
      <feColorMatrix
         id="feColorMatrix158-5"
         values="-1 0 0 0 1 0 -1 0 0 1 0 0 -1 0 1 -0.21 -0.72 -0.07 2 0 "
         result="fbSourceGraphic" />
      <feColorMatrix
         result="fbSourceGraphicAlpha"
         in="fbSourceGraphic"
         values="0 0 0 -1 0 0 0 0 -1 0 0 0 0 -1 0 0 0 0 1 0"
         id="feColorMatrix159-2" />
      <feColorMatrix
         id="feColorMatrix160-1"
         type="hueRotate"
         values="180"
         result="color1"
         in="fbSourceGraphic" />
      <feColorMatrix
         id="feColorMatrix161-1"
         values="-1 0 0 0 1 0 -1 0 0 1 0 0 -1 0 1 -0.21 -0.72 -0.07 2 0 "
         result="fbSourceGraphic" />
      <feColorMatrix
         result="fbSourceGraphicAlpha"
         in="fbSourceGraphic"
         values="0 0 0 -1 0 0 0 0 -1 0 0 0 0 -1 0 0 0 0 1 0"
         id="feColorMatrix164-0" />
      <feColorMatrix
         id="feColorMatrix165-1"
         type="hueRotate"
         values="180"
         result="color1"
         in="fbSourceGraphic" />
      <feColorMatrix
         id="feColorMatrix166-8"
         values="-1 0 0 0 1 0 -1 0 0 1 0 0 -1 0 1 -0.21 -0.72 -0.07 2 0 "
         result="fbSourceGraphic" />
      <feColorMatrix
         result="fbSourceGraphicAlpha"
         in="fbSourceGraphic"
         values="0 0 0 -1 0 0 0 0 -1 0 0 0 0 -1 0 0 0 0 1 0"
         id="feColorMatrix229" />
      <feColorMatrix
         id="feColorMatrix230"
         type="hueRotate"
         values="180"
         result="color1"
         in="fbSourceGraphic" />
      <feColorMatrix
         id="feColorMatrix231"
         values="-1 0 0 0 1 0 -1 0 0 1 0 0 -1 0 1 -0.21 -0.72 -0.07 2 0 "
         result="color2" />
    </filter>
    <filter
       style="color-interpolation-filters:sRGB"
       inkscape:label="Invert"
       id="filter171-8"
       x="0"
       y="0"
       width="1"
       height="1">
      <feColorMatrix
         type="hueRotate"
         values="180"
         result="color1"
         id="feColorMatrix170-1" />
      <feColorMatrix
         values="-1 0 0 0 1 0 -1 0 0 1 0 0 -1 0 1 -0.21 -0.72 -0.07 2 0 "
         result="color2"
         id="feColorMatrix171-5" />
    </filter>
    <inkscape:path-effect
       effect="fillet_chamfer"
       id="path-effect232"
       is_visible="true"
       lpeversion="1"
       nodesatellites_param="F,0,0,1,0,0,0,1 @ F,0,0,1,0,0,0,1 @ F,0,0,1,0,0,0,1 @ F,0,0,1,0,0,0,1 @ F,0,0,1,0,0,0,1 @ F,0,0,1,0,0,0,1 @ F,0,0,1,0,0,0,1 @ F,0,0,1,0,0,0,1 @ F,0,0,1,0,0,0,1 @ F,0,0,1,0,0,0,1 @ F,0,0,1,0,0,0,1 @ F,0,0,1,0,0,0,1 @ F,0,0,1,0,0,0,1 @ F,0,0,1,0,0,0,1 @ F,0,0,1,0,0,0,1 @ F,0,0,1,0,0,0,1 @ F,0,0,1,0,0,0,1 @ F,0,0,1,0,0,0,1 @ F,0,0,1,0,0,0,1 @ F,0,0,1,0,0,0,1 @ F,0,0,1,0,0,0,1 @ F,0,0,1,0,0,0,1 @ F,0,0,1,0,0,0,1 @ F,0,0,1,0,0,0,1 @ F,0,0,1,0,0,0,1 @ F,0,0,1,0,0,0,1 @ F,0,0,1,0,0,0,1 @ F,0,0,1,0,0,0,1 @ F,0,0,1,0,0,0,1 @ F,0,0,1,0,0,0,1 @ F,0,0,1,0,0,0,1 @ F,0,0,1,0,0,0,1 @ F,0,0,1,0,0,0,1 @ F,0,0,1,0,0,0,1 @ F,0,0,1,0,0,0,1 @ F,0,0,1,0,0,0,1 @ F,0,0,1,0,0,0,1 @ F,0,0,1,0,0,0,1 @ F,0,0,1,0,0,0,1 @ F,0,0,1,0,0,0,1 | F,0,0,1,0,0,0,1 @ F,0,0,1,0,0,0,1 @ F,0,0,1,0,0,0,1 @ F,0,0,1,0,0,0,1 @ F,0,0,1,0,0,0,1 @ F,0,0,1,0,0,0,1 @ F,0,0,1,0,0,0,1 @ F,0,0,1,0,0,0,1 @ F,0,1,1,0,0,0,1 | F,0,0,1,0,0,0,1 @ F,0,0,1,0,0,0,1 @ F,0,0,1,0,0,0,1 @ F,0,0,1,0,0,0,1 @ F,0,0,1,0,0,0,1 @ F,0,0,1,0,0,0,1 @ F,0,0,1,0,0,0,1 @ F,0,0,1,0,0,0,1 @ F,0,0,1,0,0,0,1 @ F,0,0,1,0,0,0,1 @ F,0,0,1,0,0,0,1 @ F,0,0,1,0,0,0,1 @ F,0,0,1,0,0,0,1 @ F,0,0,1,0,0,0,1 @ F,0,0,1,0,0,0,1 @ F,0,0,1,0,0,0,1"
       radius="0"
       unit="px"
       method="auto"
       mode="F"
       chamfer_steps="1"
       flexible="false"
       use_knot_distance="true"
       apply_no_radius="true"
       apply_with_radius="true"
       only_selected="false"
       hide_knots="false" />
    <filter
       style="color-interpolation-filters:sRGB"
       inkscape:label="Invert"
       id="filter33-7"
       x="0"
       y="0"
       width="1"
       height="1">
      <feColorMatrix
         values="1 0 0 0 0 0 1 0 0 0 0 0 1 0 0 -0.21 -0.72 -0.07 2 0 "
         result="fbSourceGraphic"
         id="feColorMatrix33-1" />
      <feColorMatrix
         result="fbSourceGraphicAlpha"
         in="fbSourceGraphic"
         values="0 0 0 -1 0 0 0 0 -1 0 0 0 0 -1 0 0 0 0 1 0"
         id="feColorMatrix156" />
      <feColorMatrix
         id="feColorMatrix157"
         type="hueRotate"
         values="180"
         result="color1"
         in="fbSourceGraphic" />
      <feColorMatrix
         id="feColorMatrix158"
         values="-1 0 0 0 1 0 -1 0 0 1 0 0 -1 0 1 -0.21 -0.72 -0.07 2 0 "
         result="fbSourceGraphic" />
      <feColorMatrix
         result="fbSourceGraphicAlpha"
         in="fbSourceGraphic"
         values="0 0 0 -1 0 0 0 0 -1 0 0 0 0 -1 0 0 0 0 1 0"
         id="feColorMatrix159" />
      <feColorMatrix
         id="feColorMatrix160"
         type="hueRotate"
         values="180"
         result="color1"
         in="fbSourceGraphic" />
      <feColorMatrix
         id="feColorMatrix161"
         values="-1 0 0 0 1 0 -1 0 0 1 0 0 -1 0 1 -0.21 -0.72 -0.07 2 0 "
         result="fbSourceGraphic" />
      <feColorMatrix
         result="fbSourceGraphicAlpha"
         in="fbSourceGraphic"
         values="0 0 0 -1 0 0 0 0 -1 0 0 0 0 -1 0 0 0 0 1 0"
         id="feColorMatrix164" />
      <feColorMatrix
         id="feColorMatrix165"
         type="hueRotate"
         values="180"
         result="color1"
         in="fbSourceGraphic" />
      <feColorMatrix
         id="feColorMatrix166"
         values="-1 0 0 0 1 0 -1 0 0 1 0 0 -1 0 1 -0.21 -0.72 -0.07 2 0 "
         result="color2" />
    </filter>
    <clipPath
       clipPathUnits="userSpaceOnUse"
       id="clipPath2">
      <use
         x="0"
         y="0"
         xlink:href="#g1"
         id="use2" />
    </clipPath>
  </defs>
  <g
     inkscape:label="Layer 1"
     inkscape:groupmode="layer"
     id="layer1">
    <g
       id="g2"
       clip-path="url(#clipPath2)">
      <g
         inkscape:label="Clip"
         id="g1">
        <rect
           style="display:inline;fill:#fbf600;fill-opacity:1;fill-rule:evenodd;stroke:none;stroke-width:2.55145;stroke-linecap:round;stroke-linejoin:round;stroke-dasharray:none;stroke-opacity:1;paint-order:stroke fill markers"
           id="rect253"
           width="1200"
           height="400"
           x="0"
           y="0"
           ry="200" />
      </g>
      <g
         id="g3"
         transform="translate(34.951456,4.1545252)">
        <path
           style="display:inline;mix-blend-mode:normal;fill:#1a1a1a;fill-opacity:0.223881;stroke:none;stroke-width:1.64704;stroke-linecap:round;stroke-linejoin:round;stroke-dasharray:none;stroke-opacity:0.906383;paint-order:stroke fill markers;filter:url(#filter33-7-2)"
           d="m 286.76562,369.62891 c -0.32003,-0.024 -0.66027,-0.0134 -0.99414,0.0293 l -0.01,-0.002 c -0.66772,0.0853 -1.31202,0.29763 -1.72852,0.60937 -0.296,0.2216 -0.81399,0.82497 -1.15039,1.3418 -0.0667,0.10253 -0.15218,0.13175 -0.23242,0.18555 0.12649,0.60299 -0.0933,1.22231 -0.63867,1.66211 v 0.34765 c 0.006,0.23716 -0.054,0.46881 -0.0918,0.70118 -0.0236,0.12529 -0.035,0.25189 -0.043,0.3789 -0.007,0.11153 -0.01,0.2223 -0.0117,0.33399 -0.002,0.10057 -0.002,0.20215 -0.002,0.30273 -2.4e-4,0.0981 4e-5,0.19682 0,0.29492 -4e-5,0.11426 0,0.22754 0,0.3418 5.1e-4,0.0164 3.7e-4,0.0326 0,0.0488 l 0.16602,1.8789 c 0.2374,2.6954 1.54096,5.58446 4.59179,10.18164 1.2273,1.84949 2.61514,4.38601 3.08594,5.63672 l 0.85742,2.27539 -0.71484,0.57618 -0.71289,0.57812 0.68945,2.72852 c 0.3788,1.50059 0.86965,4.26703 1.08985,6.14648 0.32667,2.78882 0.54748,3.57711 1.20898,4.28711 l 0.8125,0.87109 -0.0469,0.0996 c 0.006,0.0123 0.0119,0.0248 0.0176,0.0371 0.01,0.0222 0.0183,0.0439 0.0273,0.0664 0.009,0.0196 0.0164,0.0403 0.0234,0.0606 0.007,0.0179 0.0145,0.0361 0.0195,0.0547 0.002,0.0104 0.006,0.0193 0.01,0.0293 0.006,0.0129 0.01,0.0272 0.0137,0.041 0.005,0.0149 0.0106,0.0282 0.0156,0.043 0.007,0.0202 0.0126,0.042 0.0176,0.0625 0.007,0.0202 0.009,0.0395 0.0117,0.0605 0.002,0.0151 0.005,0.0301 0.008,0.0449 0.004,0.0178 0.009,0.0366 0.0117,0.0547 0,0.0106 0.002,0.0213 0.004,0.0312 0.004,0.0136 0.008,0.0276 0.0117,0.041 0.004,0.0144 0.008,0.0288 0.0117,0.043 0.005,0.0173 0.009,0.0331 0.0117,0.0508 0.003,0.0149 0.008,0.0303 0.0117,0.0449 0.006,0.0173 0.009,0.0367 0.0117,0.0547 4.8e-4,0.007 9e-4,0.0131 0.002,0.0195 0.003,0.007 0.008,0.0125 0.01,0.0195 0.005,0.0177 0.0115,0.0349 0.0215,0.0508 0.0143,0.0355 0.0282,0.0718 0.0352,0.10938 0.006,0.036 0.0205,0.0702 0.0195,0.10742 0.002,0.0237 0.004,0.0472 0.01,0.0703 0.007,0.0366 0.0272,0.072 0.0312,0.10937 0.009,0.0421 0.0155,0.0841 0.0195,0.12696 0.005,0.0313 0.0184,0.0584 0.0234,0.0898 0.007,0.0393 0.0196,0.0787 0.0176,0.11914 0,0.039 9e-4,0.0781 0.002,0.11719 10e-4,0.007 0.002,0.0142 0.004,0.0215 0.003,0.0212 0.007,0.0435 0.0117,0.0645 0.006,0.0232 0.0107,0.0465 0.0137,0.0703 0.002,0.0182 0.004,0.0368 0.008,0.0547 0.004,0.0195 0.01,0.0372 0.0137,0.0566 0.004,0.0209 0.006,0.0416 0.01,0.0625 0.004,0.0226 0.007,0.0475 0.01,0.0703 0.002,0.0193 0.008,0.0376 0.0117,0.0566 0.003,0.0188 0.007,0.038 0.0117,0.0566 0.005,0.0181 0.009,0.0347 0.0137,0.0527 0.005,0.0182 0.008,0.0378 0.01,0.0566 0.002,0.0116 -2.8e-4,0.024 0.004,0.0351 0.006,0.0164 0.009,0.0336 0.0117,0.0508 0.002,0.0165 0.005,0.0326 0.008,0.0488 0.005,0.0197 0.009,0.0403 0.0117,0.0606 0.002,0.0208 0.006,0.04 0.01,0.0605 0.005,0.0252 0.009,0.0505 0.01,0.0762 0.001,0.0238 0.004,0.0486 0.006,0.0723 0.002,0.0196 0.007,0.0391 0.01,0.0586 0.002,0.02 0.003,0.0403 0.004,0.0605 10e-4,0.0169 -1.5e-4,0.0339 0.002,0.0508 0.001,0.014 0.005,0.0274 0.008,0.041 0.005,0.0194 0.009,0.039 0.0117,0.0586 0.003,0.027 0.007,0.0531 0.01,0.0801 0.003,0.0225 0.007,0.0457 0.008,0.0684 9.9e-4,0.0244 0.004,0.0479 0.006,0.0723 0.002,0.0213 0.006,0.0435 0.01,0.0645 0.005,0.0208 0.008,0.0412 0.01,0.0625 0.002,0.0171 0.004,0.034 0.008,0.0508 0.005,0.0197 0.01,0.0401 0.0117,0.0606 10e-4,0.018 0.002,0.0351 0.006,0.0527 0.005,0.0189 0.009,0.0391 0.0117,0.0586 0.002,0.0176 0.002,0.0354 0.006,0.0527 0.005,0.0238 0.0106,0.0464 0.0156,0.0703 0.005,0.0218 0.005,0.0443 0.008,0.0664 0.002,0.0197 0.008,0.0392 0.0117,0.0586 0.005,0.0202 0.007,0.0419 0.008,0.0625 10e-4,0.0156 0.003,0.0297 0.006,0.0449 0.005,0.0211 0.01,0.0428 0.0117,0.0645 0.002,0.0176 0.003,0.035 0.004,0.0527 0,0.0134 0.004,0.0277 0.006,0.041 0.003,0.0165 0.005,0.0322 0.006,0.0488 0.001,0.0138 0.004,0.0273 0.006,0.041 0.003,0.0166 0.003,0.034 0.004,0.0508 10e-4,0.0124 -2.9e-4,0.0253 0.004,0.0371 0.005,0.014 0.008,0.0303 0.01,0.0449 0.002,0.0139 0.003,0.027 0.004,0.041 0,0.006 0.002,0.0144 0.004,0.0234 0,0.0104 0.003,0.0213 0.006,0.0312 0.003,0.01 0.007,0.0173 0.01,0.0273 0.004,0.0145 0.005,0.0299 0.006,0.0449 7.4e-4,0.0157 0.002,0.0312 0.002,0.0469 -0.001,0.01 -1.5e-4,0.0193 0.002,0.0293 10e-4,0.0104 0.003,0.0211 0.006,0.0312 0.003,0.0115 0.008,0.0233 0.01,0.0351 7.3e-4,0.006 -5.8e-4,0.003 0,0.01 1e-4,0.002 0.004,0.005 0.004,0.004 0.003,0.009 0.006,0.0179 0.008,0.0274 0.001,0.009 0.002,0.0183 0.002,0.0273 -10e-4,0.003 7.2e-4,0.002 0.004,0.0156 0.002,0.01 0.003,0.0213 0.004,0.0312 5.4e-4,0.008 -1.2e-4,0.0154 0,0.0234 1e-4,0.007 -2e-5,0.0125 0,0.0195 0,9.9e-4 1.1e-4,0.005 0,0.004 -0.002,-0.0216 0.002,-0.003 0.004,0.004 0.003,0.0115 0.005,0.0235 0.006,0.0351 5.1e-4,0.0119 -9e-5,0.0252 0,0.0371 8e-5,0.0119 -1e-5,0.0233 0,0.0352 v 0.0156 c 0.009,-0.01 0.0393,-0.0682 0.043,-0.0645 0.28109,0.28107 -1.17004,4.68051 -2.02344,6.13672 -0.4812,0.8212 -1.18972,2.51278 -1.57422,3.75781 l -0.69922,2.26367 -2.13281,0.37305 c -1.17299,0.20541 -2.64875,0.52248 -3.28125,0.70508 -0.18374,0.053 -0.19747,-0.009 -0.2207,-0.0664 -0.0429,0.0147 -0.0856,0.0281 -0.12891,0.041 -0.0449,0.0132 -0.0904,0.0242 -0.13672,0.0312 -0.0212,0.003 -0.0101,0.002 -0.0293,0.004 -0.002,9.9e-4 -0.006,0.004 -0.0117,0.006 -0.004,10e-4 -0.008,0.005 -0.0117,0.006 -0.0811,0.0275 -0.1442,0.0173 -0.1836,-0.0117 -0.015,9.9e-4 -0.0299,0.003 -0.0449,0.004 -0.041,0.0132 -0.0819,0.0265 -0.12305,0.0391 -0.0798,0.0261 -0.1635,0.0338 -0.24609,0.0469 -0.0492,0.008 -0.0968,0.0242 -0.14648,0.0293 -0.0848,0.002 -0.1683,0.0161 -0.25196,0.0273 -0.0136,0.002 -0.0274,0.004 -0.041,0.006 -0.0563,0.0131 -0.11413,0.0183 -0.17188,0.0234 -0.004,3.5e-4 -0.008,0.002 -0.0117,0.002 -0.0756,0.012 -0.1513,0.0229 -0.22656,0.0391 -0.0437,0.0101 -0.0886,0.011 -0.13281,0.0176 -0.005,7.2e-4 -0.009,0.002 -0.0137,0.004 -0.0632,0.01 -0.12583,0.0185 -0.18946,0.0254 -0.0113,4.7e-4 -0.022,3.5e-4 -0.0332,0.002 -0.0144,0.001 -0.0285,0.005 -0.043,0.006 -0.10347,0.007 -0.20705,0.0263 -0.30859,0.0488 -0.0151,0.003 -0.0298,0.009 -0.0449,0.0117 h -0.002 c -0.14339,0.0373 -0.28465,0.0781 -0.42968,0.10937 -0.13014,0.027 -0.26227,0.0413 -0.39454,0.0527 -0.0389,0.006 -0.0783,0.007 -0.11718,0.0117 -0.009,0.001 0.0164,-7.2e-4 0.0254,0 -0.007,0.003 -0.0321,0.0107 -0.043,0.0137 -0.0725,0.0365 -0.16353,0.0187 -0.23633,0.0488 -0.0967,0.0281 -0.19542,0.0499 -0.29492,0.0645 -0.11428,0.0161 -0.23053,0.0165 -0.3457,0.0195 -0.0179,2.8e-4 -0.0348,0.004 -0.0527,0.004 -0.05,10e-4 -0.10039,0.002 -0.15039,0.002 -0.0464,10e-4 -0.0576,-0.005 -0.0352,0.002 -0.0781,0.0219 -0.15808,0.037 -0.23828,0.0488 -0.0444,0.004 -0.0767,0.0246 -0.13672,0.0449 -0.0925,0.0287 -0.19091,0.036 -0.28711,0.043 -0.0756,0.005 -0.15076,0.0107 -0.22656,0.0117 -0.0712,-0.005 -0.13313,5.4e-4 -0.19922,0.0156 -0.0872,0.0294 -0.18113,0.0257 -0.26953,0.0469 -0.12186,0.0282 -0.24693,0.0482 -0.37109,0.0625 -0.018,10e-4 -0.0347,0.002 -0.0527,0.004 -0.0516,0.005 -0.10455,0.009 -0.15625,0.0117 -0.0461,0.002 -0.0582,0.002 -0.0351,0.008 -0.0685,0.0185 -0.13882,0.0279 -0.20899,0.0391 -0.0862,0.0365 -0.17751,0.0616 -0.26953,0.0781 -3.2157,2.13857 -7.03829,4.27421 -7.32812,3.98438 -0.10859,-0.1086 0.24004,-0.44752 0.77344,-0.75391 l 0.96874,-0.55859 -1.02539,0.21094 c -0.56363,0.1152 -2.0244,0.79538 -3.24609,1.51171 -1.2216,0.71635 -2.60434,1.41355 -3.07422,1.55079 l -0.85547,0.25 0.85547,-0.8711 c 0.46988,-0.47877 1.7766,-1.43226 2.9043,-2.12109 l 2.05078,-1.25391 -2.77148,0.21289 c -3.85377,0.29528 -5.76191,0.9286 -11.06836,3.67383 l -4.61328,2.38672 -3.16211,-0.23437 c -3.59007,-0.26712 -3.73046,-0.43286 -2.47071,-2.90235 0.74138,-1.45304 0.63572,-1.58845 -0.67383,-0.86328 -0.52993,0.29353 -1.12096,1.20058 -1.60546,2.46484 -0.8575,2.23781 -1.09169,2.04987 -0.28711,-0.23047 0.2837,-0.80471 0.45586,-1.5245 0.38086,-1.5996 -0.0751,-0.0751 -0.55993,0.25611 -1.07813,0.73632 -0.5183,0.48011 -1.06233,0.87306 -1.20703,0.87305 -0.1447,0 -0.37347,-1.72078 -0.50977,-3.82422 l -0.24804,-3.82422 -0.80469,1.00586 c -0.4425,0.55293 -1.18063,1.79673 -1.64063,2.76563 -0.84022,1.77015 -1.56477,2.59421 -1.55078,1.76172 0.0162,-0.9694 1.37881,-3.39006 2.74219,-4.86914 1.21839,-1.3216 1.40457,-1.71172 1.23047,-2.58204 -0.1133,-0.56423 -0.0713,-1.02734 0.0918,-1.02734 0.4784,0 0.71093,0.95375 0.71093,2.91211 0,1.90386 0.39231,2.54002 1.16797,1.89648 0.3408,-0.28286 0.43852,-1.49967 0.39453,-4.89843 -0.0322,-2.48741 -0.19447,-4.52344 -0.35937,-4.52344 -0.4638,0 -0.8845,1.93365 -0.66992,3.07617 0.1457,0.77563 0.10428,0.89951 -0.16602,0.51172 -0.97328,-1.39649 0.11624,-4.97515 1.23242,-4.04883 0.37637,0.3121 0.48324,0.97422 0.40625,2.49414 -0.0936,1.83784 0.32586,7.02345 0.56836,7.02344 0.0515,0 1.68422,-0.55357 3.62891,-1.22852 3.85246,-1.33758 9.02019,-3.86459 10.57617,-5.17382 0.94009,-0.79103 0.95884,-0.86841 0.47266,-1.8086 -0.66799,-1.29157 -0.64879,-1.48838 0.31054,-3.39844 0.44929,-0.89462 0.92224,-2.11108 1.05274,-2.70507 0.2364,-1.07614 0.22685,-1.08562 -2.61133,-2.40235 -1.5665,-0.72657 -3.19686,-1.62796 -3.62305,-2.00195 -0.61007,-0.53553 -1.48047,-0.72643 -4.09961,-0.90234 -1.82901,-0.12286 -4.11635,-0.30978 -5.08203,-0.41602 -1.73265,-0.19059 -1.75865,-0.21175 -1.96875,-1.52539 -0.2578,-1.61227 -1.32787,-2.85762 -4.46484,-5.19727 -3.13647,-2.33947 -3.94141,-3.55798 -3.94141,-5.96484 0,-1.77256 -0.0402,-1.858 -0.76953,-1.6582 -0.4229,0.11585 -2.03035,0.47433 -3.57226,0.79687 -2.90117,0.60689 -3.08629,0.59426 -7.75196,-0.55078 -1.21116,-0.29726 -1.40284,-0.24555 -2.16992,0.58789 -1.36758,1.48565 -5.25118,7.57785 -6.30078,9.88477 -0.94899,2.08567 -1.00273,2.13476 -2.29688,2.13476 -1.89512,0 -7.05259,1.56956 -9.25976,2.81836 -2.84599,1.61023 -6.93811,5.85461 -7.63281,7.91602 -0.82078,2.43516 -0.36022,3.79915 2.01367,5.96875 2.95137,2.69747 9.03634,5.43174 16.54883,7.43555 1.1466,0.30583 1.22516,0.42973 2.00195,3.21093 1.1816,4.23088 1.70866,5.62323 2.65625,7.01953 0.4665,0.68726 0.80206,1.28668 0.74609,1.33008 -0.0563,0.0434 -0.83071,0.43468 -1.7207,0.8711 -0.89,0.43641 -1.95142,1.14806 -2.35742,1.58007 l -0.73828,0.78516 2.09961,2.02344 c 1.1549,1.11279 2.10156,2.16634 2.10156,2.33984 0,0.0724 -0.46975,0.22997 -0.75781,0.35547 -0.01,0.15706 -0.0349,0.32598 -0.084,0.50781 -0.18329,0.67954 -0.44931,1.33237 -0.66406,2.00196 -0.0718,0.3451 -0.27008,0.64463 -0.37695,0.97656 -0.0174,0.0413 -0.0873,0.31769 -0.0742,0.27539 3.7e-4,0.23885 -0.0856,0.45603 -0.19727,0.66016 -0.0234,0.33574 -0.19098,0.62121 -0.39062,0.8789 -0.0209,0.0289 -0.0233,0.0307 -0.0332,0.043 -0.005,0.0312 -0.0424,0.15988 -0.0859,0.32813 0.0699,-0.0755 -0.0292,0.0981 -0.1211,0.24609 -0.0182,0.13719 -0.0547,0.26154 -0.0918,0.4082 -0.0332,0.0655 -0.0664,0.13178 -0.0996,0.19727 0.002,0 0.007,-2e-4 0.008,-0.002 -0.005,0.0104 -0.0109,0.019 -0.0156,0.0293 -0.0402,0.0898 -0.0842,0.17072 -0.1289,0.24805 0.3978,0.40093 0.59307,0.80664 0.0918,0.80664 -0.63137,0 -6.13874,3.91933 -7.83203,5.57422 -1.4425,1.4098 -2.49726,3.34393 -3.27148,6.12695 h 4.90234 c 4.73674,-0.0219 9.47263,0.02 14.20899,0.0742 5.04541,0.0585 10.09133,0.17217 15.13672,0.23437 5.33156,0.064 10.66225,0.0849 15.99414,0.10157 5.26532,0.0265 10.53071,-0.13987 15.79492,-0.22657 1.28669,-0.0158 2.57299,-0.0491 3.85937,-0.0742 0.11841,-2.7206 0.41801,-3.54321 0.89063,-2.26563 0.2668,0.7213 0.33973,0.59589 0.54883,-0.98047 0.35149,-2.64899 1.14345,-4.34818 2.61914,-5.61133 0.71872,-0.61536 3.89207,-2.56821 7.05078,-4.33984 11.1845,-6.27294 15.44931,-9.49722 22.1543,-16.75391 1.31126,-1.41882 3.19675,-3.31456 4.18945,-4.21093 l 1.7832,-1.63282 -1.4375,-2.625 c -0.79097,-1.44347 -1.95017,-3.39275 -2.57617,-4.33203 -0.62598,-0.93928 -0.98438,-1.75976 -0.79688,-1.82226 0.657,-0.21898 3.23205,1.48991 4.0293,2.67382 l 0.80664,1.19532 -0.22461,-1.87891 c -0.1236,-1.03329 -0.3636,-2.80004 -0.5332,-3.92773 -0.1695,-1.12768 -0.31055,-2.40587 -0.31055,-2.83985 -0.004,-1.33854 0.54273,-0.53489 0.98633,1.44727 0.232,1.03633 0.70032,2.22771 1.04102,2.64844 0.6133,0.75741 0.62077,0.73908 0.85547,-1.95313 0.14869,-1.70491 0.0913,-3.35848 -0.15626,-4.42969 -0.21719,-0.93974 -0.52072,-3.56762 -0.67382,-5.83984 -0.2066,-3.06727 -0.45615,-4.47531 -0.96875,-5.4668 -0.69359,-1.34177 -3.29126,-4.02694 -4.80078,-4.96093 -0.6289,-0.38905 -1.09676,-1.45116 -2.09375,-4.75977 l -1.28321,-4.25977 -1.71093,0.0918 c -1.88603,0.10109 -2.11891,-0.18203 -2.12891,-2.58008 -0.003,-0.61687 -0.26144,-1.69381 -0.57422,-2.39257 -0.4392,-0.9809 -0.57466,-2.3832 -0.59766,-6.1543 -0.0287,-4.79104 -0.0141,-4.88862 0.74024,-5.07813 1.15369,-0.28989 0.93386,-1.28041 -0.42774,-1.92968 -1.29609,-0.61804 -1.55733,-1.53649 -0.68554,-2.40821 0.4519,-0.45191 0.33785,-0.57579 -0.99805,-1.08594 -1.2603,-0.48137 -1.71101,-0.50827 -2.75391,-0.16406 -1.52559,0.50348 -1.80727,0.28581 -1.07617,-0.83008 0.3074,-0.46911 0.5586,-0.90761 0.5586,-0.9746 0,-0.067 -1.0375,0.004 -2.30469,0.15624 -3.04058,0.36602 -3.61073,0.17523 -3.32813,-1.11132 0.1885,-0.85832 0.0923,-1.04256 -0.70508,-1.34571 -0.25511,-0.097 -0.55496,-0.15567 -0.875,-0.17968 z m 16.05665,27.18164 c 0.2075,0 2.26274,5.69374 3.29882,9.14062 0.0706,0.2349 0.003,0.42578 -0.15039,0.42578 -0.412,0 -3.88441,-8.81174 -3.63281,-9.21875 0.1184,-0.19166 0.33541,-0.34765 0.48438,-0.34765 z"
           id="path53-8-0"
           transform="matrix(2.2897225,0,0,2.2897225,-319.60725,-676.64562)" />
        <g
           id="path182"
           style="display:inline;filter:url(#filter171-8)"
           transform="matrix(2.4446992,-0.22063926,0.03681209,0.40788069,-656.42178,176.90719)">
          <path
             style="color:#000000;fill:#e7e7e7;stroke-linecap:round;stroke-linejoin:round;-inkscape-stroke:none;paint-order:stroke fill markers"
             d="m 365.30664,42.857422 c -2.0042,-0.0053 -4.02306,0.0901 -6.05078,0.283203 -4.37516,0.41666 -13.74976,2.182636 -17.99219,3.388672 -12.68574,3.606304 -23.38191,10.088306 -32.83008,19.888672 l -1.98632,2.0625 a 1.0666916,1.0666916 0 0 0 -0.10743,0.128906 l -3.51562,5.042969 a 1.0666916,1.0666916 0 0 0 0,0.002 l -3.51758,5.048828 a 1.0666916,1.0666916 0 0 0 -0.082,0.142578 l -1.36133,2.791016 c -13.10385,26.844174 -7.82421,55.381674 13.83399,74.574224 l 2.42968,2.15625 a 1.0666916,1.0666916 0 0 0 0.11133,0.0859 l 4.59766,3.10157 a 1.0666916,1.0666916 0 0 0 0.002,0 c 5.03866,3.39593 7.55526,4.75771 12.9668,7.02148 1.93363,0.80888 4.55132,1.93115 5.78906,2.48047 4.27931,1.89921 11.59582,3.88326 16.93164,4.61914 16.17295,2.23044 31.73463,-2.16849 44.92383,-11.99219 -8.95036,8.06315 -13.56466,13.19992 -16.96094,19.19727 -4.71429,8.32478 -6.31247,16.03304 -4.5918,23.04883 1.72068,7.01579 6.72212,13.20994 14.80079,18.6289 a 1.0666916,1.0666916 0 0 0 0.002,0.002 l 3.14258,2.10156 c 0.0717,0.6522 0.10749,1.33236 0.44726,1.7793 0.48155,0.63341 1.21643,0.938 1.85742,0.98046 0.64099,0.0425 1.21516,-0.11344 1.70118,-0.37109 0.0939,-0.0498 0.17781,-0.13057 0.27148,-0.1875 9.43598,6.23256 23.98772,8.18705 34.12891,7.48438 a 1.0666916,1.0666916 0 0 0 0.99414,-1.08008 c -3.6e-4,-0.0225 -0.001,-0.0487 -0.002,-0.0742 -0.006,-0.39217 -0.012,-0.78734 -0.0195,-1.18359 a 1.0666916,1.0666916 0 0 0 -1.04297,-1.04688 c -13.69493,-0.30804 -29.36435,-6.99943 -39.23242,-13.10937 -8.52836,-5.28045 -13.04798,-10.50984 -14.21289,-16.38672 -1.1649,-5.87688 0.989,-12.69396 6.48828,-21.22071 3.71501,-5.76019 8.2468,-10.69606 16.83203,-18.28711 1.16587,-1.03085 3.0755,-2.79516 4.28516,-3.96484 a 1.0666916,1.0666916 0 0 0 0.002,-0.002 l 2.16602,-2.09766 a 1.0666916,1.0666916 0 0 0 0.13281,-0.1582 l 4.02149,-5.78711 4.02148,-5.78516 A 1.0666916,1.0666916 0 0 0 418.77539,146 l 1.40625,-3.07031 c 0.7889,-1.7198 1.77575,-4.09185 2.23828,-5.39453 0.43249,-1.2181 1.29467,-3.55666 1.9043,-5.17579 4.85191,-12.88636 5.91688,-24.12807 3.48047,-36.845698 -5.86365,-30.607201 -32.44722,-52.576528 -62.49805,-52.65625 z m -0.9082,3.734375 c 10.15998,-0.201872 20.63642,2.249343 30.46484,7.816406 l 3.46484,1.964844 3.15821,2.472656 a 1.0666916,1.0666916 0 0 0 0,0.002 c 17.00014,13.296535 26.17296,33.325671 24.48242,54.695317 -0.98841,12.49417 -6.3077,23.48316 -15.13477,34.54883 -7.95467,9.97204 -15.4342,15.34497 -27.4414,19.71484 -21.26607,7.73954 -43.12808,4.44687 -58.78125,-8.75781 -10.7235,-9.0461 -17.44118,-20.83859 -18.95508,-33.9707 -2.24983,-19.51569 1.59751,-36.242734 10.86328,-51.333992 10.24611,-16.68795 28.48297,-26.76696 47.87891,-27.152344 z m -17.06055,0.777344 c -1.85523,0.588735 -3.69336,1.213397 -5.47852,1.976562 a 1.0666916,1.0666916 0 0 0 -0.0351,-0.755859 c 0.007,-0.0021 0.014,-0.0057 0.0215,-0.0078 1.24184,-0.35303 3.49062,-0.791386 5.49219,-1.21289 z m -18.94141,8.103515 c -2.48994,1.943842 -4.94188,3.997878 -7.11132,6.289063 l -2.51368,2.652343 a 1.0666916,1.0666916 0 0 0 -0.0996,0.123047 l -2.71875,3.882813 C 304.09,85.276594 300.01266,105.32726 303.24023,129.2832 c 1.20333,8.9314 5.69511,17.76916 12.2168,25.35742 -21.84347,-17.93852 -28.68416,-45.78256 -14.5,-71.529292 a 1.0666916,1.0666916 0 0 0 0.0273,-0.05273 l 1.19532,-2.488282 3.46679,-4.978515 3.46875,-4.97461 2.01172,-2.101562 c 4.70062,-4.900624 11.07,-9.527123 17.26953,-13.042969 z m 90.71875,84.468754 c -0.16629,0.39392 -0.27628,0.68112 -0.44336,1.0625 a 1.0666916,1.0666916 0 0 0 -0.10351,-0.0625 c 0.20778,-0.32933 0.34526,-0.6698 0.54687,-1 z m -91.91992,23.625 c 0.65896,0.46345 1.27929,0.9929 1.95508,1.42578 -0.70764,-0.33084 -1.57156,-0.694 -2.21875,-1.03125 a 1.0666916,1.0666916 0 0 0 0.26367,-0.39453 z m 62.22656,3.96875 c -8.8276,4.55974 -18.42701,6.76161 -28.38281,6.4375 7.58914,-0.0391 15.38172,-1.35967 23.08203,-4.16211 1.92041,-0.69891 3.57378,-1.50248 5.30078,-2.27539 z m -5.16015,46.49218 c 2.45558,2.63869 5.57424,5.17245 9.56055,7.64063 8.15382,5.04854 20.00273,10.40066 31.79687,12.48828 -8.75623,-0.62532 -18.64327,-2.96626 -25.08398,-7.52734 a 1.0666916,1.0666916 0 0 0 -1.67188,0.72656 c 0.0573,-0.41804 0.13532,-0.26844 -0.0137,-0.18945 -0.14899,0.079 -0.39678,0.1378 -0.56055,0.12695 -0.16376,-0.0109 -0.21697,-0.0298 -0.30273,-0.14258 -0.0858,-0.11281 -0.23264,-0.42595 -0.20117,-1.13477 a 1.0666916,1.0666916 0 0 0 -0.47266,-0.93359 l -3.42578,-2.29492 h -0.002 c -4.11805,-2.76245 -7.2754,-5.68662 -9.62305,-8.75977 z"
             id="path231" />
          <path
             style="color:#000000;fill:#e5e5e5;stroke-linecap:round;stroke-linejoin:round;-inkscape-stroke:none;paint-order:stroke fill markers"
             d="m 365.30435,43.924685 c -1.96884,-0.0052 -3.93539,-1.081324 -5.92924,-0.891443 -4.22877,0.402719 -13.9395,1.763153 -18.04186,2.929371 -12.51491,3.55774 -22.79892,11.515897 -32.13165,21.196525 l -1.98688,2.061223 -3.51593,5.042746 -3.51592,5.04905 -1.36145,2.79242 C 285.8965,108.5822 291.07275,136.50996 312.40481,155.4135 l 2.42918,2.15577 4.59921,3.10129 c 5.01288,3.37856 7.55761,7.40534 12.93886,9.65644 1.94148,0.81216 4.36498,1.53531 5.61974,2.09218 4.11356,1.82565 11.5712,4.77634 16.77624,5.49418 23.32365,3.2166 45.34078,-10.54342 60.56264,-32.01174 l 2.89048,-4.07832 -1.19213,2.28815 c -0.65524,1.25738 -2.56097,4.27862 -4.23466,6.71945 l -3.04252,4.43762 -2.35144,2.389 c -1.29371,1.31422 -4.18481,4.02637 -6.42542,6.02608 -9.62104,8.58667 -14.10493,13.62425 -17.55888,19.72344 -9.25363,16.34061 -5.99701,29.61934 9.87568,40.26633 l 3.42781,2.29445 c -0.15466,3.4842 3.08364,2.37897 3.19975,1.53174 9.03049,6.39507 24.04944,8.49192 34.25564,7.78474 -4e-4,-0.0252 -10e-4,-0.0504 -0.002,-0.0756 -0.006,-0.39307 -0.0115,-0.78613 -0.019,-1.17875 -14.01971,-0.31535 -29.77175,-7.07784 -39.77054,-13.26872 -17.30751,-10.71618 -19.19933,-21.81922 -8.05812,-39.09389 3.77921,-5.85975 8.40377,-10.88705 17.02156,-18.50688 1.14585,-1.01316 3.05864,-2.78115 4.25021,-3.93334 l 2.16657,-2.09905 4.02042,-5.78655 4.02215,-5.78655 1.40637,-3.06977 c 0.77381,-1.68691 1.7649,-4.07404 2.20285,-5.30749 0.43794,-1.23344 1.29877,-3.56834 1.91087,-5.19403 4.79861,-12.7448 5.83539,-23.72084 3.43126,-36.269951 -5.76931,-30.114796 -31.92094,-51.710657 -61.45351,-51.789004 z m 37.31212,17.254199 c 17.26355,13.502559 26.13475,30.724177 24.4161,52.449156 -1.00834,12.74606 -6.45275,23.95698 -15.36468,35.12904 -8.04339,10.08326 -15.77117,15.63292 -27.91142,20.05121 -21.57908,7.85346 -43.87191,4.51979 -59.83291,-8.94457 -10.9054,-9.19955 -17.77959,-21.24543 -19.32635,-34.66257 -2.27374,-19.72311 1.63285,-36.736322 11.01426,-52.01593 10.4411,-17.005531 29.18315,-23.187811 48.93502,-23.580267 10.34622,-0.205572 20.65322,0.79565 30.64782,6.456839 m -54.23018,-7.088057 -1.72773,0.819446 c -6.00122,2.851424 -12.16881,7.41212 -17.17706,12.701417 l -2.51384,2.653745 -2.71944,3.882915 c -11.70173,16.626587 -15.7309,36.347672 -12.52947,60.109532 1.61614,11.99545 9.25831,24.0436 20.08655,32.77155 l 1.81238,1.4624 -2.2685,-1.26069 c -1.24662,-0.6927 -3.82005,-2.37686 -5.72051,-3.74424 -25.01969,-18.00164 -33.35165,-48.24221 -18.18432,-75.773565 l 1.2336,-2.565497 3.51592,-5.04905 3.51592,-5.042746 2.06982,-2.162077 C 318.3652,59.4284 330.97521,51.503343 339.79619,49.269996 Z"
             id="path232"
             inkscape:original-d="m 365.30435,43.924685 c -1.96884,-0.0052 -3.93539,-1.081324 -5.92924,-0.891443 -4.22877,0.402719 -13.9395,1.763153 -18.04186,2.929371 -12.51491,3.55774 -22.79892,11.515897 -32.13165,21.196525 l -1.98688,2.061223 -3.51593,5.042746 -3.51592,5.04905 -1.36145,2.79242 C 285.8965,108.5822 291.07275,136.50996 312.40481,155.4135 l 2.42918,2.15577 4.59921,3.10129 c 5.01288,3.37856 7.55761,7.40534 12.93886,9.65644 1.94148,0.81216 4.36498,1.53531 5.61974,2.09218 4.11356,1.82565 11.5712,4.77634 16.77624,5.49418 23.32365,3.2166 45.34078,-10.54342 60.56264,-32.01174 l 2.89048,-4.07832 -1.19213,2.28815 c -0.65524,1.25738 -2.56097,4.27862 -4.23466,6.71945 l -3.04252,4.43762 -2.35144,2.389 c -1.29371,1.31422 -4.18481,4.02637 -6.42542,6.02608 -9.62104,8.58667 -14.10493,13.62425 -17.55888,19.72344 -9.25363,16.34061 -5.99701,29.61934 9.87568,40.26633 l 3.42781,2.29445 c -0.15466,3.4842 3.08364,2.37897 3.19975,1.53174 9.03049,6.39507 24.04944,8.49192 34.25564,7.78474 -4e-4,-0.0252 -10e-4,-0.0504 -0.002,-0.0756 -0.006,-0.39307 -0.0115,-0.78613 -0.019,-1.17875 -14.01971,-0.31535 -29.77175,-7.07784 -39.77054,-13.26872 -17.30751,-10.71618 -19.19933,-21.81922 -8.05812,-39.09389 3.77921,-5.85975 8.40377,-10.88705 17.02156,-18.50688 1.14585,-1.01316 3.05864,-2.78115 4.25021,-3.93334 l 2.16657,-2.09905 4.02042,-5.78655 4.02215,-5.78655 1.40637,-3.06977 c 0.77381,-1.68691 1.7649,-4.07404 2.20285,-5.30749 0.43794,-1.23344 1.29877,-3.56834 1.91087,-5.19403 4.79861,-12.7448 5.83539,-23.72084 3.43126,-36.269951 -5.76931,-30.114796 -31.92094,-51.710657 -61.45351,-51.789004 z m 37.31212,17.254199 c 17.26355,13.502559 26.13475,30.724177 24.4161,52.449156 -1.00834,12.74606 -6.45275,23.95698 -15.36468,35.12904 -8.04339,10.08326 -15.77117,15.63292 -27.91142,20.05121 -21.57908,7.85346 -43.87191,4.51979 -59.83291,-8.94457 -10.9054,-9.19955 -17.77959,-21.24543 -19.32635,-34.66257 -2.27374,-19.72311 1.63285,-36.736322 11.01426,-52.01593 10.4411,-17.005531 29.18315,-23.187811 48.93502,-23.580267 10.34622,-0.205572 20.65322,0.79565 30.64782,6.456839 m -54.23018,-7.088057 -1.72773,0.819446 c -6.00122,2.851424 -12.16881,7.41212 -17.17706,12.701417 l -2.51384,2.653745 -2.71944,3.882915 c -11.70173,16.626587 -15.7309,36.347672 -12.52947,60.109532 1.61614,11.99545 9.25831,24.0436 20.08655,32.77155 l 1.81238,1.4624 -2.2685,-1.26069 c -1.24662,-0.6927 -3.82005,-2.37686 -5.72051,-3.74424 -25.01969,-18.00164 -33.35165,-48.24221 -18.18432,-75.773565 l 1.2336,-2.565497 3.51592,-5.04905 3.51592,-5.042746 2.06982,-2.162077 C 318.3652,59.4284 330.97521,51.503343 339.79619,49.269996 Z"
             inkscape:path-effect="#path-effect232"
             sodipodi:nodetypes="cssccccccccsssccccccssccccccssscccccssscccsssssssccccccscccsccccccc" />
        </g>
        <path
           style="display:inline;mix-blend-mode:normal;fill:#e5e5e5;fill-opacity:1;stroke:none;stroke-width:1.64704;stroke-linecap:round;stroke-linejoin:round;stroke-dasharray:none;stroke-opacity:0.906383;paint-order:stroke fill markers;filter:url(#filter33-7)"
           d="m 286.76562,369.62891 c -0.32003,-0.024 -0.66027,-0.0134 -0.99414,0.0293 l -0.01,-0.002 c -0.66772,0.0853 -1.31202,0.29763 -1.72852,0.60937 -0.296,0.2216 -0.81399,0.82497 -1.15039,1.3418 -0.0667,0.10253 -0.15218,0.13175 -0.23242,0.18555 0.12649,0.60299 -0.0933,1.22231 -0.63867,1.66211 v 0.34765 c 0.006,0.23716 -0.054,0.46881 -0.0918,0.70118 -0.0236,0.12529 -0.035,0.25189 -0.043,0.3789 -0.007,0.11153 -0.01,0.2223 -0.0117,0.33399 -0.002,0.10057 -0.002,0.20215 -0.002,0.30273 -2.4e-4,0.0981 4e-5,0.19682 0,0.29492 -4e-5,0.11426 0,0.22754 0,0.3418 5.1e-4,0.0164 3.7e-4,0.0326 0,0.0488 l 0.16602,1.8789 c 0.2374,2.6954 1.54096,5.58446 4.59179,10.18164 1.2273,1.84949 2.61514,4.38601 3.08594,5.63672 l 0.85742,2.27539 -0.71484,0.57618 -0.71289,0.57812 0.68945,2.72852 c 0.3788,1.50059 0.86965,4.26703 1.08985,6.14648 0.32667,2.78882 0.54748,3.57711 1.20898,4.28711 l 0.8125,0.87109 -0.0469,0.0996 c 0.006,0.0123 0.0119,0.0248 0.0176,0.0371 0.01,0.0222 0.0183,0.0439 0.0273,0.0664 0.009,0.0196 0.0164,0.0403 0.0234,0.0606 0.007,0.0179 0.0145,0.0361 0.0195,0.0547 0.002,0.0104 0.006,0.0193 0.01,0.0293 0.006,0.0129 0.01,0.0272 0.0137,0.041 0.005,0.0149 0.0106,0.0282 0.0156,0.043 0.007,0.0202 0.0126,0.042 0.0176,0.0625 0.007,0.0202 0.009,0.0395 0.0117,0.0605 0.002,0.0151 0.005,0.0301 0.008,0.0449 0.004,0.0178 0.009,0.0366 0.0117,0.0547 0,0.0106 0.002,0.0213 0.004,0.0312 0.004,0.0136 0.008,0.0276 0.0117,0.041 0.004,0.0144 0.008,0.0288 0.0117,0.043 0.005,0.0173 0.009,0.0331 0.0117,0.0508 0.003,0.0149 0.008,0.0303 0.0117,0.0449 0.006,0.0173 0.009,0.0367 0.0117,0.0547 4.8e-4,0.007 9e-4,0.0131 0.002,0.0195 0.003,0.007 0.008,0.0125 0.01,0.0195 0.005,0.0177 0.0115,0.0349 0.0215,0.0508 0.0143,0.0355 0.0282,0.0718 0.0352,0.10938 0.006,0.036 0.0205,0.0702 0.0195,0.10742 0.002,0.0237 0.004,0.0472 0.01,0.0703 0.007,0.0366 0.0272,0.072 0.0312,0.10937 0.009,0.0421 0.0155,0.0841 0.0195,0.12696 0.005,0.0313 0.0184,0.0584 0.0234,0.0898 0.007,0.0393 0.0196,0.0787 0.0176,0.11914 0,0.039 9e-4,0.0781 0.002,0.11719 10e-4,0.007 0.002,0.0142 0.004,0.0215 0.003,0.0212 0.007,0.0435 0.0117,0.0645 0.006,0.0232 0.0107,0.0465 0.0137,0.0703 0.002,0.0182 0.004,0.0368 0.008,0.0547 0.004,0.0195 0.01,0.0372 0.0137,0.0566 0.004,0.0209 0.006,0.0416 0.01,0.0625 0.004,0.0226 0.007,0.0475 0.01,0.0703 0.002,0.0193 0.008,0.0376 0.0117,0.0566 0.003,0.0188 0.007,0.038 0.0117,0.0566 0.005,0.0181 0.009,0.0347 0.0137,0.0527 0.005,0.0182 0.008,0.0378 0.01,0.0566 0.002,0.0116 -2.8e-4,0.024 0.004,0.0351 0.006,0.0164 0.009,0.0336 0.0117,0.0508 0.002,0.0165 0.005,0.0326 0.008,0.0488 0.005,0.0197 0.009,0.0403 0.0117,0.0606 0.002,0.0208 0.006,0.04 0.01,0.0605 0.005,0.0252 0.009,0.0505 0.01,0.0762 0.001,0.0238 0.004,0.0486 0.006,0.0723 0.002,0.0196 0.007,0.0391 0.01,0.0586 0.002,0.02 0.003,0.0403 0.004,0.0605 10e-4,0.0169 -1.5e-4,0.0339 0.002,0.0508 0.001,0.014 0.005,0.0274 0.008,0.041 0.005,0.0194 0.009,0.039 0.0117,0.0586 0.003,0.027 0.007,0.0531 0.01,0.0801 0.003,0.0225 0.007,0.0457 0.008,0.0684 9.9e-4,0.0244 0.004,0.0479 0.006,0.0723 0.002,0.0213 0.006,0.0435 0.01,0.0645 0.005,0.0208 0.008,0.0412 0.01,0.0625 0.002,0.0171 0.004,0.034 0.008,0.0508 0.005,0.0197 0.01,0.0401 0.0117,0.0606 10e-4,0.018 0.002,0.0351 0.006,0.0527 0.005,0.0189 0.009,0.0391 0.0117,0.0586 0.002,0.0176 0.002,0.0354 0.006,0.0527 0.005,0.0238 0.0106,0.0464 0.0156,0.0703 0.005,0.0218 0.005,0.0443 0.008,0.0664 0.002,0.0197 0.008,0.0392 0.0117,0.0586 0.005,0.0202 0.007,0.0419 0.008,0.0625 10e-4,0.0156 0.003,0.0297 0.006,0.0449 0.005,0.0211 0.01,0.0428 0.0117,0.0645 0.002,0.0176 0.003,0.035 0.004,0.0527 0,0.0134 0.004,0.0277 0.006,0.041 0.003,0.0165 0.005,0.0322 0.006,0.0488 0.001,0.0138 0.004,0.0273 0.006,0.041 0.003,0.0166 0.003,0.034 0.004,0.0508 10e-4,0.0124 -2.9e-4,0.0253 0.004,0.0371 0.005,0.014 0.008,0.0303 0.01,0.0449 0.002,0.0139 0.003,0.027 0.004,0.041 0,0.006 0.002,0.0144 0.004,0.0234 0,0.0104 0.003,0.0213 0.006,0.0312 0.003,0.01 0.007,0.0173 0.01,0.0273 0.004,0.0145 0.005,0.0299 0.006,0.0449 7.4e-4,0.0157 0.002,0.0312 0.002,0.0469 -0.001,0.01 -1.5e-4,0.0193 0.002,0.0293 10e-4,0.0104 0.003,0.0211 0.006,0.0312 0.003,0.0115 0.008,0.0233 0.01,0.0351 7.3e-4,0.006 -5.8e-4,0.003 0,0.01 1e-4,0.002 0.004,0.005 0.004,0.004 0.003,0.009 0.006,0.0179 0.008,0.0274 0.001,0.009 0.002,0.0183 0.002,0.0273 -10e-4,0.003 7.2e-4,0.002 0.004,0.0156 0.002,0.01 0.003,0.0213 0.004,0.0312 5.4e-4,0.008 -1.2e-4,0.0154 0,0.0234 1e-4,0.007 -2e-5,0.0125 0,0.0195 0,9.9e-4 1.1e-4,0.005 0,0.004 -0.002,-0.0216 0.002,-0.003 0.004,0.004 0.003,0.0115 0.005,0.0235 0.006,0.0351 5.1e-4,0.0119 -9e-5,0.0252 0,0.0371 8e-5,0.0119 -1e-5,0.0233 0,0.0352 v 0.0156 c 0.009,-0.01 0.0393,-0.0682 0.043,-0.0645 0.28109,0.28107 -1.17004,4.68051 -2.02344,6.13672 -0.4812,0.8212 -1.18972,2.51278 -1.57422,3.75781 l -0.69922,2.26367 -2.13281,0.37305 c -1.17299,0.20541 -2.64875,0.52248 -3.28125,0.70508 -0.18374,0.053 -0.19747,-0.009 -0.2207,-0.0664 -0.0429,0.0147 -0.0856,0.0281 -0.12891,0.041 -0.0449,0.0132 -0.0904,0.0242 -0.13672,0.0312 -0.0212,0.003 -0.0101,0.002 -0.0293,0.004 -0.002,9.9e-4 -0.006,0.004 -0.0117,0.006 -0.004,10e-4 -0.008,0.005 -0.0117,0.006 -0.0811,0.0275 -0.1442,0.0173 -0.1836,-0.0117 -0.015,9.9e-4 -0.0299,0.003 -0.0449,0.004 -0.041,0.0132 -0.0819,0.0265 -0.12305,0.0391 -0.0798,0.0261 -0.1635,0.0338 -0.24609,0.0469 -0.0492,0.008 -0.0968,0.0242 -0.14648,0.0293 -0.0848,0.002 -0.1683,0.0161 -0.25196,0.0273 -0.0136,0.002 -0.0274,0.004 -0.041,0.006 -0.0563,0.0131 -0.11413,0.0183 -0.17188,0.0234 -0.004,3.5e-4 -0.008,0.002 -0.0117,0.002 -0.0756,0.012 -0.1513,0.0229 -0.22656,0.0391 -0.0437,0.0101 -0.0886,0.011 -0.13281,0.0176 -0.005,7.2e-4 -0.009,0.002 -0.0137,0.004 -0.0632,0.01 -0.12583,0.0185 -0.18946,0.0254 -0.0113,4.7e-4 -0.022,3.5e-4 -0.0332,0.002 -0.0144,0.001 -0.0285,0.005 -0.043,0.006 -0.10347,0.007 -0.20705,0.0263 -0.30859,0.0488 -0.0151,0.003 -0.0298,0.009 -0.0449,0.0117 h -0.002 c -0.14339,0.0373 -0.28465,0.0781 -0.42968,0.10937 -0.13014,0.027 -0.26227,0.0413 -0.39454,0.0527 -0.0389,0.006 -0.0783,0.007 -0.11718,0.0117 -0.009,0.001 0.0164,-7.2e-4 0.0254,0 -0.007,0.003 -0.0321,0.0107 -0.043,0.0137 -0.0725,0.0365 -0.16353,0.0187 -0.23633,0.0488 -0.0967,0.0281 -0.19542,0.0499 -0.29492,0.0645 -0.11428,0.0161 -0.23053,0.0165 -0.3457,0.0195 -0.0179,2.8e-4 -0.0348,0.004 -0.0527,0.004 -0.05,10e-4 -0.10039,0.002 -0.15039,0.002 -0.0464,10e-4 -0.0576,-0.005 -0.0352,0.002 -0.0781,0.0219 -0.15808,0.037 -0.23828,0.0488 -0.0444,0.004 -0.0767,0.0246 -0.13672,0.0449 -0.0925,0.0287 -0.19091,0.036 -0.28711,0.043 -0.0756,0.005 -0.15076,0.0107 -0.22656,0.0117 -0.0712,-0.005 -0.13313,5.4e-4 -0.19922,0.0156 -0.0872,0.0294 -0.18113,0.0257 -0.26953,0.0469 -0.12186,0.0282 -0.24693,0.0482 -0.37109,0.0625 -0.018,10e-4 -0.0347,0.002 -0.0527,0.004 -0.0516,0.005 -0.10455,0.009 -0.15625,0.0117 -0.0461,0.002 -0.0582,0.002 -0.0351,0.008 -0.0685,0.0185 -0.13882,0.0279 -0.20899,0.0391 -0.0862,0.0365 -0.17751,0.0616 -0.26953,0.0781 -3.2157,2.13857 -7.03829,4.27421 -7.32812,3.98438 -0.10859,-0.1086 0.24004,-0.44752 0.77344,-0.75391 l 0.96874,-0.55859 -1.02539,0.21094 c -0.56363,0.1152 -2.0244,0.79538 -3.24609,1.51171 -1.2216,0.71635 -2.60434,1.41355 -3.07422,1.55079 l -0.85547,0.25 0.85547,-0.8711 c 0.46988,-0.47877 1.7766,-1.43226 2.9043,-2.12109 l 2.05078,-1.25391 -2.77148,0.21289 c -3.85377,0.29528 -5.76191,0.9286 -11.06836,3.67383 l -4.61328,2.38672 -3.16211,-0.23437 c -3.59007,-0.26712 -3.73046,-0.43286 -2.47071,-2.90235 0.74138,-1.45304 0.63572,-1.58845 -0.67383,-0.86328 -0.52993,0.29353 -1.12096,1.20058 -1.60546,2.46484 -0.8575,2.23781 -1.09169,2.04987 -0.28711,-0.23047 0.2837,-0.80471 0.45586,-1.5245 0.38086,-1.5996 -0.0751,-0.0751 -0.55993,0.25611 -1.07813,0.73632 -0.5183,0.48011 -1.06233,0.87306 -1.20703,0.87305 -0.1447,0 -0.37347,-1.72078 -0.50977,-3.82422 l -0.24804,-3.82422 -0.80469,1.00586 c -0.4425,0.55293 -1.18063,1.79673 -1.64063,2.76563 -0.84022,1.77015 -1.56477,2.59421 -1.55078,1.76172 0.0162,-0.9694 1.37881,-3.39006 2.74219,-4.86914 1.21839,-1.3216 1.40457,-1.71172 1.23047,-2.58204 -0.1133,-0.56423 -0.0713,-1.02734 0.0918,-1.02734 0.4784,0 0.71093,0.95375 0.71093,2.91211 0,1.90386 0.39231,2.54002 1.16797,1.89648 0.3408,-0.28286 0.43852,-1.49967 0.39453,-4.89843 -0.0322,-2.48741 -0.19447,-4.52344 -0.35937,-4.52344 -0.4638,0 -0.8845,1.93365 -0.66992,3.07617 0.1457,0.77563 0.10428,0.89951 -0.16602,0.51172 -0.97328,-1.39649 0.11624,-4.97515 1.23242,-4.04883 0.37637,0.3121 0.48324,0.97422 0.40625,2.49414 -0.0936,1.83784 0.32586,7.02345 0.56836,7.02344 0.0515,0 1.68422,-0.55357 3.62891,-1.22852 3.85246,-1.33758 9.02019,-3.86459 10.57617,-5.17382 0.94009,-0.79103 0.95884,-0.86841 0.47266,-1.8086 -0.66799,-1.29157 -0.64879,-1.48838 0.31054,-3.39844 0.44929,-0.89462 0.92224,-2.11108 1.05274,-2.70507 0.2364,-1.07614 0.22685,-1.08562 -2.61133,-2.40235 -1.5665,-0.72657 -3.19686,-1.62796 -3.62305,-2.00195 -0.61007,-0.53553 -1.48047,-0.72643 -4.09961,-0.90234 -1.82901,-0.12286 -4.11635,-0.30978 -5.08203,-0.41602 -1.73265,-0.19059 -1.75865,-0.21175 -1.96875,-1.52539 -0.2578,-1.61227 -1.32787,-2.85762 -4.46484,-5.19727 -3.13647,-2.33947 -3.94141,-3.55798 -3.94141,-5.96484 0,-1.77256 -0.0402,-1.858 -0.76953,-1.6582 -0.4229,0.11585 -2.03035,0.47433 -3.57226,0.79687 -2.90117,0.60689 -3.08629,0.59426 -7.75196,-0.55078 -1.21116,-0.29726 -1.40284,-0.24555 -2.16992,0.58789 -1.36758,1.48565 -5.25118,7.57785 -6.30078,9.88477 -0.94899,2.08567 -1.00273,2.13476 -2.29688,2.13476 -1.89512,0 -7.05259,1.56956 -9.25976,2.81836 -2.84599,1.61023 -6.93811,5.85461 -7.63281,7.91602 -0.82078,2.43516 -0.36022,3.79915 2.01367,5.96875 2.95137,2.69747 9.03634,5.43174 16.54883,7.43555 1.1466,0.30583 1.22516,0.42973 2.00195,3.21093 1.1816,4.23088 1.70866,5.62323 2.65625,7.01953 0.4665,0.68726 0.80206,1.28668 0.74609,1.33008 -0.0563,0.0434 -0.83071,0.43468 -1.7207,0.8711 -0.89,0.43641 -1.95142,1.14806 -2.35742,1.58007 l -0.73828,0.78516 2.09961,2.02344 c 1.1549,1.11279 2.10156,2.16634 2.10156,2.33984 0,0.0724 -0.46975,0.22997 -0.75781,0.35547 -0.01,0.15706 -0.0349,0.32598 -0.084,0.50781 -0.18329,0.67954 -0.44931,1.33237 -0.66406,2.00196 -0.0718,0.3451 -0.27008,0.64463 -0.37695,0.97656 -0.0174,0.0413 -0.0873,0.31769 -0.0742,0.27539 3.7e-4,0.23885 -0.0856,0.45603 -0.19727,0.66016 -0.0234,0.33574 -0.19098,0.62121 -0.39062,0.8789 -0.0209,0.0289 -0.0233,0.0307 -0.0332,0.043 -0.005,0.0312 -0.0424,0.15988 -0.0859,0.32813 0.0699,-0.0755 -0.0292,0.0981 -0.1211,0.24609 -0.0182,0.13719 -0.0547,0.26154 -0.0918,0.4082 -0.0332,0.0655 -0.0664,0.13178 -0.0996,0.19727 0.002,0 0.007,-2e-4 0.008,-0.002 -0.005,0.0104 -0.0109,0.019 -0.0156,0.0293 -0.0402,0.0898 -0.0842,0.17072 -0.1289,0.24805 0.3978,0.40093 0.59307,0.80664 0.0918,0.80664 -0.63137,0 -6.13874,3.91933 -7.83203,5.57422 -1.4425,1.4098 -2.49726,3.34393 -3.27148,6.12695 h 4.90234 c 4.73674,-0.0219 9.47263,0.02 14.20899,0.0742 5.04541,0.0585 10.09133,0.17217 15.13672,0.23437 5.33156,0.064 10.66225,0.0849 15.99414,0.10157 5.26532,0.0265 10.53071,-0.13987 15.79492,-0.22657 1.28669,-0.0158 2.57299,-0.0491 3.85937,-0.0742 0.11841,-2.7206 0.41801,-3.54321 0.89063,-2.26563 0.2668,0.7213 0.33973,0.59589 0.54883,-0.98047 0.35149,-2.64899 1.14345,-4.34818 2.61914,-5.61133 0.71872,-0.61536 3.89207,-2.56821 7.05078,-4.33984 11.1845,-6.27294 15.44931,-9.49722 22.1543,-16.75391 1.31126,-1.41882 3.19675,-3.31456 4.18945,-4.21093 l 1.7832,-1.63282 -1.4375,-2.625 c -0.79097,-1.44347 -1.95017,-3.39275 -2.57617,-4.33203 -0.62598,-0.93928 -0.98438,-1.75976 -0.79688,-1.82226 0.657,-0.21898 3.23205,1.48991 4.0293,2.67382 l 0.80664,1.19532 -0.22461,-1.87891 c -0.1236,-1.03329 -0.3636,-2.80004 -0.5332,-3.92773 -0.1695,-1.12768 -0.31055,-2.40587 -0.31055,-2.83985 -0.004,-1.33854 0.54273,-0.53489 0.98633,1.44727 0.232,1.03633 0.70032,2.22771 1.04102,2.64844 0.6133,0.75741 0.62077,0.73908 0.85547,-1.95313 0.14869,-1.70491 0.0913,-3.35848 -0.15626,-4.42969 -0.21719,-0.93974 -0.52072,-3.56762 -0.67382,-5.83984 -0.2066,-3.06727 -0.45615,-4.47531 -0.96875,-5.4668 -0.69359,-1.34177 -3.29126,-4.02694 -4.80078,-4.96093 -0.6289,-0.38905 -1.09676,-1.45116 -2.09375,-4.75977 l -1.28321,-4.25977 -1.71093,0.0918 c -1.88603,0.10109 -2.11891,-0.18203 -2.12891,-2.58008 -0.003,-0.61687 -0.26144,-1.69381 -0.57422,-2.39257 -0.4392,-0.9809 -0.57466,-2.3832 -0.59766,-6.1543 -0.0287,-4.79104 -0.0141,-4.88862 0.74024,-5.07813 1.15369,-0.28989 0.93386,-1.28041 -0.42774,-1.92968 -1.29609,-0.61804 -1.55733,-1.53649 -0.68554,-2.40821 0.4519,-0.45191 0.33785,-0.57579 -0.99805,-1.08594 -1.2603,-0.48137 -1.71101,-0.50827 -2.75391,-0.16406 -1.52559,0.50348 -1.80727,0.28581 -1.07617,-0.83008 0.3074,-0.46911 0.5586,-0.90761 0.5586,-0.9746 0,-0.067 -1.0375,0.004 -2.30469,0.15624 -3.04058,0.36602 -3.61073,0.17523 -3.32813,-1.11132 0.1885,-0.85832 0.0923,-1.04256 -0.70508,-1.34571 -0.25511,-0.097 -0.55496,-0.15567 -0.875,-0.17968 z m 16.05665,27.18164 c 0.2075,0 2.26274,5.69374 3.29882,9.14062 0.0706,0.2349 0.003,0.42578 -0.15039,0.42578 -0.412,0 -3.88441,-8.81174 -3.63281,-9.21875 0.1184,-0.19166 0.33541,-0.34765 0.48438,-0.34765 z"
           id="path53-8"
           transform="matrix(2.2897225,0,0,2.2897225,-330.86412,-682.68527)"
           inkscape:label="path53-8" />
      </g>
      <text
         xml:space="preserve"
         id="text2"
         style="font-family:Krungthep;-inkscape-font-specification:Krungthep;letter-spacing:-0.61px;white-space:pre;shape-inside:url(#rect2);fill:#000000;fill-opacity:1;fill-rule:evenodd;stroke-width:3.263;stroke-linecap:round;stroke-linejoin:round;paint-order:stroke fill markers"
         inkscape:label="text2"
         transform="translate(32.038835,2.5910969)"><tspan
           x="463.10742"
           y="265.7609"
           id="tspan3"><tspan
             style="font-weight:900;font-size:192px;font-family:Optima;-inkscape-font-specification:'Optima, Heavy'"
             id="tspan1">Lasso</tspan></tspan></text>
    </g>
  </g>
</svg>
